<svg viewBox="0 0 30 30" xmlns="http://www.w3.org/2000/svg" xmlns:xlink="http://www.w3.org/1999/xlink" width="30.000000" height="30.000000" fill="none" customFrame="#000000">
	<path id="Vector" d="M10 5L4 5C2.94 5 1.92004 5.4215 1.17004 6.1715C0.420044 6.9215 0 7.939 0 9L0 24.5C0 25.561 0.420044 26.5785 1.17004 27.3285C1.92004 28.0785 2.94 28.5 4 28.5L5 28.5L5 29C5 29.552 5.45 30 6 30C6.55 30 7 29.552 7 29L7 28.5L23 28.5L23 29C23 29.552 23.45 30 24 30C24.55 30 25 29.552 25 29L25 28.5L26 28.5C27.06 28.5 28.08 28.0785 28.83 27.3285C29.58 26.5785 30 25.561 30 24.5L30 9C30 7.939 29.58 6.9215 28.83 6.1715C28.08 5.4215 27.06 5 26 5L20 5L20 3C20 1.343 18.655 0 17 0L13 0C11.345 0 10 1.343 10 3L10 5ZM7 8L7 25.5C7 26.052 7.45 26.5 8 26.5C8.55 26.5 9 26.052 9 25.5L9 8C9 7.448 8.55 7 8 7C7.45 7 7 7.448 7 8ZM21 8L21 25.5C21 26.052 21.45 26.5 22 26.5C22.55 26.5 23 26.052 23 25.5L23 8C23 7.448 22.55 7 22 7C21.45 7 21 7.448 21 8ZM18 5L18 3C18 2.4475 17.555 2 17 2L13 2C12.445 2 12 2.4475 12 3L12 5L18 5Z" fill="rgb(0,0,0)" fill-rule="evenodd" />
</svg>
