<svg viewBox="0 0 54 22" xmlns="http://www.w3.org/2000/svg" xmlns:xlink="http://www.w3.org/1999/xlink" width="54.000000" height="22.000000" fill="none" customFrame="url(#clipPath_0)">
	<defs>
		<clipPath id="clipPath_0">
			<rect width="54.000000" height="22.000000" x="0.000000" y="0.000000" rx="11.000000" fill="rgb(255,255,255)" />
		</clipPath>
	</defs>
	<rect id="Frame 33" width="54.000000" height="22.000000" x="0.000000" y="0.000000" rx="11.000000" fill="rgb(242,219,177)" />
	<path id="â­ 4.9" d="M31.056 15.774L31.056 13.772L26.142 13.772L26.142 12.68L30.832 5.974L32.442 5.974L32.442 12.554L33.842 12.554L33.842 13.772L32.442 13.772L32.442 15.774L31.056 15.774ZM27.668 12.554L31.14 12.554L31.14 7.514L31.14 7.514L27.668 12.554ZM35.7893 15.844C35.5187 15.844 35.2947 15.76 35.1173 15.592C34.9493 15.4147 34.8653 15.2047 34.8653 14.962C34.8653 14.71 34.9493 14.5 35.1173 14.332C35.2947 14.1547 35.5187 14.066 35.7893 14.066C36.06 14.066 36.2793 14.1547 36.4473 14.332C36.6153 14.5 36.6993 14.71 36.6993 14.962C36.6993 15.2047 36.6153 15.4147 36.4473 15.592C36.2793 15.76 36.06 15.844 35.7893 15.844ZM41.1173 15.942C40.4827 15.942 39.9413 15.8207 39.4933 15.578C39.0453 15.326 38.6907 14.9947 38.4293 14.584C38.168 14.164 38.0093 13.7113 37.9533 13.226L39.2553 13.226C39.3487 13.7113 39.5587 14.0893 39.8853 14.36C40.212 14.6213 40.6273 14.752 41.1313 14.752C41.598 14.752 42.0087 14.612 42.3633 14.332C42.718 14.052 43.0027 13.6273 43.2173 13.058C43.432 12.4887 43.5533 11.77 43.5813 10.902C43.5907 10.874 43.5953 10.846 43.5953 10.818C43.5953 10.79 43.5953 10.762 43.5953 10.734C43.446 11.014 43.2407 11.2707 42.9793 11.504C42.718 11.7373 42.41 11.924 42.0553 12.064C41.71 12.1947 41.3227 12.26 40.8933 12.26C40.3427 12.26 39.8247 12.134 39.3393 11.882C38.8633 11.6207 38.4713 11.252 38.1633 10.776C37.8647 10.3 37.7153 9.74467 37.7153 9.11C37.7153 8.54067 37.8507 8.004 38.1213 7.5C38.4013 6.996 38.7933 6.59 39.2973 6.282C39.8107 5.96467 40.4127 5.806 41.1033 5.806C41.822 5.806 42.424 5.94133 42.9093 6.212C43.404 6.47333 43.796 6.83267 44.0853 7.29C44.384 7.738 44.5987 8.242 44.7293 8.802C44.8693 9.35267 44.9393 9.922 44.9393 10.51C44.9393 11.5833 44.79 12.5307 44.4913 13.352C44.1927 14.164 43.7587 14.7987 43.1893 15.256C42.62 15.7133 41.9293 15.942 41.1173 15.942ZM41.2013 11.07C41.6027 11.07 41.962 10.9813 42.2793 10.804C42.5967 10.6173 42.8487 10.37 43.0353 10.062C43.222 9.754 43.3153 9.41333 43.3153 9.04C43.3153 8.648 43.222 8.30267 43.0353 8.004C42.8487 7.696 42.592 7.458 42.2653 7.29C41.948 7.11267 41.5887 7.024 41.1873 7.024C40.7953 7.024 40.4407 7.11267 40.1233 7.29C39.806 7.458 39.554 7.696 39.3673 8.004C39.19 8.30267 39.1013 8.65267 39.1013 9.054C39.1013 9.45533 39.19 9.81 39.3673 10.118C39.554 10.4167 39.806 10.65 40.1233 10.818C40.4407 10.986 40.8 11.07 41.2013 11.07Z" fill="rgb(221,145,21)" fill-rule="nonzero" />
</svg>
